<svg xmlns="http://www.w3.org/2000/svg" viewBox="-24 -24 198 198"><defs><clipPath id="c"><circle cx="75" cy="75" r="99"/></clipPath></defs><g clip-path="url(#c)">
  <rect x="-24" y="-24" width="198" height="198" fill="#0046e1"/>
  <path fill="#fff" d="M84.42,83.35c4.7-4.7,7.98-8.92,9.39-11.74,4.99-7.18,3.13-19.47-3.76-24.42-12.6-10.29-31.81-4.73-38.97,9.39l11.74,7.04c4.9-8.06,11.24-11.77,17.37-6.57,3.29,3.47,1.91,7.92-.47,11.74-1.88,2.35-4.23,5.63-8.45,9.39l-19.25,19.72v10.8h46.02v-13.15h-25.83l12.21-12.21Z"/>
  <path fill="#fff" d="M74.65,7.75c-14.27,0-27.52,4.41-38.46,11.97-1.97-1.27-4.27-2.07-6.81-2.07-6.81,0-12.3,5.54-12.3,12.3,0,2.49,.75,4.79,2.02,6.71-7.79,10.99-12.35,24.46-12.35,38.97,0,37.52,30.43,67.9,67.9,67.9,14.13,0,27.28-4.32,38.13-11.69l5.82,6.2c.47,.47,1.27,.33,1.5-.33l6.34-18.17c10.1-11.83,16.15-27.19,16.15-43.9,0-37.47-30.43-67.9-67.94-67.9Zm0,129.22c-33.85,0-61.32-27.47-61.32-61.32,0-12.87,3.94-24.79,10.71-34.61,1.64,.8,3.43,1.22,5.35,1.22,6.76,0,12.26-5.49,12.26-12.3,0-1.88-.42-3.62-1.17-5.21,9.77-6.57,21.55-10.42,34.18-10.42,33.9,0,61.32,27.47,61.32,61.32,0,14.13-4.79,27.14-12.82,37.47l-19.72,6.81c-.61,.19-.8,.99-.38,1.46l5.21,5.59c-9.67,6.34-21.22,10-33.62,10Z"/>
</g></svg>