<?xml version='1.0' encoding='utf-8'?>
<svg xmlns="http://www.w3.org/2000/svg" version="1.1" viewBox="340 330 580 580"
  style="shape-rendering:geometricPrecision; text-rendering:geometricPrecision; image-rendering:optimizeQuality; fill-rule:evenodd; clip-rule:evenodd">
  <style>
    .bg {
      fill: #1f2530
    }

    .white {
      fill: #efedeb
    }

    .teal {
      fill: #0c8781
    }

    .bottom-shadow {
      fill: #729495
    }

    .vertical-shadow {
      fill: #bfc8c7
    }
  </style>
  <rect width="1254" height="1254" class="bg" />
  <path class="white" style="opacity:1"
    d="M 474.94922 407.35938 C 466.99502 407.57878 461.346 411.62587 458 419.5 C 457.167 524.168 457.333 628.835 458.5 733.5 C 459.518 734.193 460.518 734.859 461.5 735.5 C 498.06 766.791 535.06 797.625 572.5 828 C 642.167 828.667 711.833 828.667 781.5 828 C 782.737 827.768 783.737 827.268 784.5 826.5 C 792.075 824.76 796.908 820.093 799 812.5 C 799.667 786.5 799.667 760.5 799 734.5 C 795.558 726.884 789.724 722.551 781.5 721.5 C 729.477 721.184 677.477 721.518 625.5 722.5 C 622.669 723.079 620.336 724.412 618.5 726.5 C 616.629 726.859 615.129 727.859 614 729.5 C 608.609 738.949 603.776 748.615 599.5 758.5 C 597.694 763.254 595.694 767.92 593.5 772.5 C 587.56 786.048 581.893 799.714 576.5 813.5 C 576.44 814.043 576.107 814.376 575.5 814.5 C 574.5 755.504 574.167 696.504 574.5 637.5 L 574.5 463.5 C 573.873 459.58 572.207 456.247 569.5 453.5 C 567 450.168 564 447.334 560.5 445 C 539.478 435.488 518.478 425.988 497.5 416.5 C 491.179 413.292 484.846 410.292 478.5 407.5 C 477.26963 407.37513 476.08553 407.32803 474.94922 407.35938 z M 473.5 429.5 C 473.466 430.256 473.52411 430.91692 473.67383 431.48242 C 473.52411 430.91692 473.466 430.256 473.5 429.5 z M 475.67383 433.73242 C 476.1908 433.91692 476.7995 434.006 477.5 434 C 476.7995 434.006 476.1908 433.91692 475.67383 433.73242 z M 564.12695 458.32617 C 565.62695 458.9928 567.084 459.5505 568.5 460 C 567.084 459.5505 565.62695 458.9928 564.12695 458.32617 z M 565 517.5 C 564.6595 518.5145 564.40686 519.52148 564.24023 520.52148 C 564.07361 521.52148 563.993 522.5145 564 523.5 C 563.993 522.5145 564.07361 521.52148 564.24023 520.52148 C 564.40686 519.52148 564.6595 518.5145 565 517.5 z M 548.625 557.35156 C 548.98816 557.32722 549.34037 557.32808 549.67969 557.35352 C 550.35833 557.40439 550.98895 557.55469 551.57227 557.80469 C 552.15558 558.05469 552.69167 558.40439 553.17969 558.85352 C 553.6677 559.30264 554.10725 559.85175 554.5 560.5 C 554.10725 559.85175 553.6677 559.30264 553.17969 558.85352 C 552.69167 558.40439 552.15558 558.05469 551.57227 557.80469 C 550.98895 557.55469 550.35833 557.40439 549.67969 557.35352 C 549.00105 557.30264 548.274 557.35175 547.5 557.5 C 547.887 557.42588 548.26184 557.37591 548.625 557.35156 z M 469 559.5 C 468.7515 560.823 468.58533 562.151 468.50195 563.48438 C 468.41858 564.81775 468.418 566.1565 468.5 567.5 C 468.418 566.1565 468.41858 564.81775 468.50195 563.48438 C 468.58533 562.151 468.7515 560.823 469 559.5 z M 554.5 561.5 C 554.916 562.8675 555.37305 564.05078 555.87305 565.05078 C 555.37305 564.05078 554.916 562.8675 554.5 561.5 z M 488 572.5 C 487.29325 572.9385 486.75314 573.38161 486.37891 573.83008 C 486.75314 573.38161 487.29325 572.9385 488 572.5 z M 486.12891 576.58008 C 486.4198 577.0483 486.8765 577.522 487.5 578 C 486.8765 577.522 486.4198 577.0483 486.12891 576.58008 z M 482.48242 577.56445 C 482.74273 577.54786 482.99805 577.55988 483.24805 577.60156 C 483.74805 577.68494 484.2268 577.8847 484.68555 578.20117 C 485.1443 578.51764 485.5825 578.9505 486 579.5 C 485.5825 578.9505 485.1443 578.51764 484.68555 578.20117 C 484.2268 577.8847 483.74805 577.68494 483.24805 577.60156 C 482.74805 577.51819 482.2268 577.55139 481.68555 577.70117 C 481.1443 577.85095 480.5825 578.117 480 578.5 C 480.5825 578.117 481.1443 577.85095 481.68555 577.70117 C 481.95617 577.62628 482.22211 577.58105 482.48242 577.56445 z M 491 584.5 C 489.763 586.104 488.597 587.771 487.5 589.5 C 488.597 587.771 489.763 586.104 491 584.5 z M 532.24414 602.62891 C 532.46786 603.00292 532.886 603.46025 533.5 604 C 532.886 603.46025 532.46786 603.00292 532.24414 602.62891 z M 533.44922 606.03711 C 532.93811 606.365 532.60028 606.50848 532.43359 606.4668 C 532.60028 606.50848 532.93811 606.365 533.44922 606.03711 z M 503.5 611.5 C 503.277 612.967 502.944 614.467 502.5 616 C 502.944 614.467 503.277 612.967 503.5 611.5 z M 463.5 621 C 464.26275 621.34 464.87706 621.73102 465.3418 622.17188 C 464.87706 621.73102 464.26275 621.34 463.5 621 z M 466.3418 625.42188 C 466.21041 626.06436 465.9295 626.75675 465.5 627.5 C 465.9295 626.75675 466.21041 626.06436 466.3418 625.42188 z M 535.28516 626.16797 C 535.45184 626.33466 535.55411 626.61334 535.58984 627.00195 C 535.55411 626.61334 535.45184 626.33466 535.28516 626.16797 z M 558.23242 629.83789 C 558.43094 630.12375 558.68625 630.345 559 630.5 C 558.68625 630.345 558.43094 630.12375 558.23242 629.83789 z M 472 653.5 C 471.75625 654.47775 471.45844 655.25206 471.10742 655.82422 C 471.45844 655.25206 471.75625 654.47775 472 653.5 z M 545.74219 654.84375 C 546.32728 654.86464 546.91325 654.9165 547.5 655 C 546.3265 654.833 545.15698 654.79162 543.99023 654.875 C 542.82348 654.95838 541.6595 655.1665 540.5 655.5 C 541.6595 655.1665 542.82348 654.95837 543.99023 654.875 C 544.57361 654.83331 545.15709 654.82286 545.74219 654.84375 z M 466.5 655.5 C 467.173 656.14425 467.79178 656.58537 468.35742 656.82422 C 467.79178 656.58537 467.173 656.14425 466.5 655.5 z M 530.96875 676.87305 C 531.15909 676.85088 531.36023 676.85943 531.57422 676.89844 C 531.14625 676.82042 530.76502 676.86456 530.43164 677.03125 C 530.09827 677.19794 529.81294 677.48708 529.57422 677.89844 C 529.81294 677.48708 530.09827 677.19794 530.43164 677.03125 C 530.59833 676.94791 530.77841 676.89522 530.96875 676.87305 z M 522.5 688.5 C 521.7145 688.9045 520.90564 689.19067 520.07227 689.35742 C 519.23889 689.52417 518.381 689.5715 517.5 689.5 C 518.381 689.5715 519.23889 689.52417 520.07227 689.35742 C 520.90564 689.19067 521.7145 688.9045 522.5 688.5 z M 522.28516 691.35547 C 522.66791 691.37322 523.073 691.42075 523.5 691.5 C 522.646 691.3415 521.88013 691.30511 521.20312 691.39258 C 521.54162 691.34884 521.90241 691.33771 522.28516 691.35547 z M 518.20312 693.39453 C 517.88013 693.97375 517.646 694.675 517.5 695.5 C 517.646 694.675 517.88013 693.97375 518.20312 693.39453 z M 528.94922 696.46094 C 529.46059 696.44197 529.97725 696.4545 530.5 696.5 C 529.4545 696.409 528.43164 696.44653 527.43164 696.61328 C 526.43164 696.78003 525.4545 697.076 524.5 697.5 C 525.4545 697.076 526.43164 696.78003 527.43164 696.61328 C 527.93164 696.52991 528.43784 696.47991 528.94922 696.46094 z M 474.16797 718.71484 C 474.00128 718.88153 473.94669 719.11255 474.00195 719.41016 C 473.94669 719.11255 474.00128 718.88153 474.16797 718.71484 z M 756 722.5 C 746.5445 722.4915 737.02478 722.61133 727.44141 722.86133 C 717.85803 723.11133 708.211 723.4915 698.5 724 C 700.789 725.248 703.123 726.415 705.5 727.5 C 703.123 726.415 700.789 725.248 698.5 724 C 708.211 723.4915 717.85803 723.11133 727.44141 722.86133 C 737.02478 722.61133 746.5445 722.4915 756 722.5 z M 662.07812 723.2168 C 661.76212 723.44569 661.60352 723.66473 661.60352 723.87305 C 661.60352 724.08136 661.76212 724.27903 662.07812 724.4668 C 661.76212 724.27903 661.60352 724.08136 661.60352 723.87305 C 661.60352 723.66473 661.76212 723.44569 662.07812 723.2168 z M 653.5 724 C 654.572 724.573 655.5658 725.23438 656.48242 725.98438 C 657.39905 726.73438 658.2385 727.573 659 728.5 C 658.2385 727.573 657.39905 726.73438 656.48242 725.98438 C 655.5658 725.23438 654.572 724.573 653.5 724 z M 748 724.5 C 748.613 727.368 749.113 730.202 749.5 733 C 749.113 730.202 748.613 727.368 748 724.5 z M 676.06055 725.52734 C 676.33827 725.55912 676.54102 725.63867 676.66602 725.76367 C 676.79102 725.88867 676.83827 726.05912 676.81055 726.27734 C 676.83827 726.05912 676.79102 725.88867 676.66602 725.76367 C 676.54102 725.63867 676.33827 725.55912 676.06055 725.52734 z M 674.99805 725.57227 C 674.13717 725.69514 672.97175 726.00425 671.5 726.5 C 672.97175 726.00425 674.13717 725.69514 674.99805 725.57227 z M 676.49805 727.07227 C 676.13717 727.69514 675.47175 728.50425 674.5 729.5 C 675.47175 728.50425 676.13717 727.69514 676.49805 727.07227 z M 673 728.5 C 672.663 729.039 672.24414 729.47522 671.74414 729.80859 C 671.24414 730.14197 670.663 730.3725 670 730.5 C 670.663 730.3725 671.24414 730.14197 671.74414 729.80859 C 672.24414 729.47522 672.663 729.039 673 728.5 z M 743.5 728.5 C 742.603 728.669 741.603 729.002 740.5 729.5 C 741.603 729.002 742.603 728.669 743.5 728.5 z M 646.25 729 C 646.70834 729.04166 647.29175 729.20825 648 729.5 C 647.29175 729.20825 646.70834 729.04166 646.25 729 z M 720.5 729 C 721.16675 729.25 721.66662 729.5 722 729.75 C 721.66662 729.5 721.16675 729.25 720.5 729 z M 645 730.25 C 645.04166 730.70834 645.20825 731.29175 645.5 732 C 645.20825 731.29175 645.04166 730.70834 645 730.25 z M 695.60156 730.82812 C 696.55109 731.07472 697.5175 731.46525 698.5 732 C 697.5175 731.46525 696.55109 731.07472 695.60156 730.82812 z M 690.10156 731.07812 C 689.21778 731.40803 688.351 731.88175 687.5 732.5 C 688.351 731.88175 689.21778 731.40803 690.10156 731.07812 z M 722 731.25 C 721.66662 731.5 721.16675 731.75 720.5 732 C 721.16675 731.75 721.66662 731.5 722 731.25 z M 746.75 732.59375 C 746.59728 732.76738 746.54236 732.91602 746.58398 733.04102 C 746.62561 733.16602 746.76397 733.26738 747 733.34375 C 746.76397 733.26738 746.62561 733.16602 746.58398 733.04102 C 746.54236 732.91602 746.59728 732.76738 746.75 732.59375 z M 755.5 733.5 C 754.6665 734 753.91662 734.58338 753.25 735.25 C 752.58338 735.91662 752 736.6665 751.5 737.5 C 752 736.6665 752.58338 735.91662 753.25 735.25 C 753.91662 734.58338 754.6665 734 755.5 733.5 z M 713.5 736.5 C 712.89425 736.481 712.32498 736.52903 711.79297 736.64453 C 711.26095 736.76003 710.76691 736.94336 710.30859 737.19336 C 709.85028 737.44336 709.42761 737.76003 709.04297 738.14453 C 708.65833 738.52903 708.311 738.981 708 739.5 C 708.311 738.981 708.65833 738.52903 709.04297 738.14453 C 709.42761 737.76003 709.85028 737.44336 710.30859 737.19336 C 710.76691 736.94336 711.26095 736.76003 711.79297 736.64453 C 712.32498 736.52903 712.89425 736.481 713.5 736.5 z M 702 740.5 C 701.6665 741.1665 701.25 741.75 700.75 742.25 C 700.25 742.75 699.6665 743.1665 699 743.5 C 699.6665 743.1665 700.25 742.75 700.75 742.25 C 701.25 741.75 701.6665 741.1665 702 740.5 z M 712 740.5 C 711.4945 740.9185 710.95056 741.21033 710.36719 741.37695 C 709.78381 741.54358 709.161 741.585 708.5 741.5 C 708.581 742.5135 708.57947 743.51953 708.49609 744.51953 C 708.41272 745.51953 708.2475 746.5135 708 747.5 C 708.2475 746.5135 708.41272 745.51953 708.49609 744.51953 C 708.57947 743.51953 708.581 742.5135 708.5 741.5 C 709.161 741.585 709.78381 741.54358 710.36719 741.37695 C 710.95056 741.21033 711.4945 740.9185 712 740.5 z M 756.5 743.5 C 757.239 745.066 757.85938 746.68298 758.35938 748.34961 C 758.85938 750.01623 759.239 751.7325 759.5 753.5 C 759.239 751.7325 758.85938 750.01623 758.35938 748.34961 C 757.85938 746.68298 757.239 745.066 756.5 743.5 z M 703.81641 743.6582 C 704.10831 743.72075 704.33917 743.8353 704.50586 744.00195 C 704.67255 744.16861 704.77689 744.38744 704.81836 744.6582 C 704.77689 744.38744 704.67255 744.16861 704.50586 744.00195 C 704.33917 743.8353 704.10831 743.72075 703.81641 743.6582 z M 753.81836 747.8457 C 753.66698 748.13069 753.5918 748.4173 753.5918 748.70898 C 753.5918 749.00067 753.66698 749.29734 753.81836 749.5957 C 753.66698 749.29734 753.5918 749.00067 753.5918 748.70898 C 753.5918 748.4173 753.66698 748.13069 753.81836 747.8457 z M 760.78711 753.06055 C 761.10095 753.01833 761.29944 753.07947 761.38281 753.24609 C 761.46619 753.41272 761.43427 753.68502 761.28711 754.06055 C 761.43427 753.68502 761.46619 753.41272 761.38281 753.24609 C 761.29944 753.07947 761.10095 753.01833 760.78711 753.06055 z M 737 754.5 C 737.6305 754.6295 738.19531 754.86194 738.69531 755.19531 C 739.19531 755.52869 739.6305 755.963 740 756.5 C 739.6305 755.963 739.19531 755.52869 738.69531 755.19531 C 738.19531 754.86194 737.6305 754.6295 737 754.5 z M 780.5 754.5 C 780.58 755.3495 780.57934 756.19006 780.49609 757.02344 C 780.41284 757.85681 780.247 758.683 780 759.5 C 780.247 758.683 780.41284 757.85681 780.49609 757.02344 C 780.57934 756.19006 780.58 755.3495 780.5 754.5 z M 760.5 755.5 C 761.217 755.865 761.86792 756.29688 762.45117 756.79688 C 763.03442 757.29688 763.55 757.865 764 758.5 C 764.194 758.036 764.45764 757.63806 764.79102 757.30469 C 765.12439 756.97131 765.5275 756.7025 766 756.5 C 765.5275 756.7025 765.12439 756.97131 764.79102 757.30469 C 764.45764 757.63806 764.194 758.036 764 758.5 C 763.55 757.865 763.03442 757.29688 762.45117 756.79688 C 761.86792 756.29688 761.217 755.865 760.5 755.5 z M 752.5 756 C 751.63675 756.26925 750.91733 756.60623 750.33984 757.01172 C 750.91733 756.60623 751.63675 756.26925 752.5 756 z M 702.5 759 C 702.965 759.597 703.36389 760.22791 703.69727 760.89453 C 704.03064 761.56116 704.2985 762.2635 704.5 763 C 703.86325 765.15025 703.33275 766.75238 702.91016 767.80664 C 703.33275 766.75238 703.86325 765.15025 704.5 763 C 704.2985 762.2635 704.03064 761.56116 703.69727 760.89453 C 703.36389 760.22791 702.965 759.597 702.5 759 z M 748.58789 760.26172 C 748.58203 760.93958 748.72 761.686 749 762.5 C 748.72 761.686 748.58203 760.93958 748.58789 760.26172 z M 702 762.5 C 701.77975 764.7335 701.66606 766.41903 701.66016 767.55664 C 701.66606 766.41903 701.77975 764.7335 702 762.5 z M 728.86914 763.44141 C 729.35005 763.43453 729.8935 763.45362 730.5 763.5 C 729.287 763.40725 728.32587 763.42075 727.61523 763.54102 C 727.97055 763.48088 728.38823 763.44828 728.86914 763.44141 z M 700 764.5 C 699.855 765.726 699.61645 766.92322 699.2832 768.08984 C 698.94995 769.25647 698.522 770.3925 698 771.5 C 698.522 770.3925 698.94995 769.25647 699.2832 768.08984 C 699.61645 766.92322 699.855 765.726 700 764.5 z M 726.36523 765.54102 C 726.65922 766.08741 727.20375 766.7405 728 767.5 C 727.20375 766.7405 726.65922 766.08741 726.36523 765.54102 z M 705.5 766.5 C 705.0575 766.83 704.7043 767.17094 704.44141 767.52344 C 704.17852 767.87594 704.00519 768.24023 703.92188 768.61523 C 703.83856 768.99023 703.84517 769.37594 703.94141 769.77344 C 704.03764 770.17094 704.22425 770.58 704.5 771 C 704.22425 770.58 704.03764 770.17094 703.94141 769.77344 C 703.84517 769.37594 703.83856 768.99023 703.92188 768.61523 C 704.00519 768.24023 704.17852 767.87594 704.44141 767.52344 C 704.7043 767.17094 705.0575 766.83 705.5 766.5 z M 739.5 767.5 C 739.103 768.18925 738.66006 768.75827 738.16992 769.20703 C 737.67978 769.6558 737.14191 769.98505 736.55859 770.19336 C 735.97528 770.40167 735.34644 770.48914 734.66992 770.45703 C 733.99341 770.42492 733.26975 770.2725 732.5 770 C 733.26975 770.2725 733.99341 770.42492 734.66992 770.45703 C 735.34644 770.48914 735.97528 770.40167 736.55859 770.19336 C 737.14191 769.98505 737.67978 769.6558 738.16992 769.20703 C 738.66006 768.75827 739.103 768.18925 739.5 767.5 z M 731.75 767.75 C 731.58338 768 731.5 768.25 731.5 768.5 C 731.5 768.75 731.58338 769 731.75 769.25 C 731.58338 769 731.5 768.75 731.5 768.5 C 731.5 768.25 731.58338 768 731.75 767.75 z M 701.73242 768.85156 C 701.78304 769.14639 701.86066 769.30533 701.96484 769.32617 C 702.06903 769.34702 702.19968 769.22971 702.35742 768.97656 C 702.19968 769.22971 702.06903 769.34702 701.96484 769.32617 C 701.86066 769.30533 701.78304 769.14639 701.73242 768.85156 z M 759 783.5 C 759.3695 784.037 759.80469 784.47131 760.30469 784.80469 C 760.80469 785.13806 761.3695 785.3705 762 785.5 C 761.3695 785.3705 760.80469 785.13806 760.30469 784.80469 C 759.80469 784.47131 759.3695 784.037 759 783.5 z M 748.5 785.5 C 748.88675 786.2785 749.32358 786.89395 749.80859 787.3457 C 749.32358 786.89395 748.88675 786.2785 748.5 785.5 z M 755.5 787 C 754.72 787.5285 753.98828 787.89395 753.30664 788.0957 C 753.98828 787.89395 754.72 787.5285 755.5 787 z M 774.5 787.5 C 773.5455 787.924 772.56836 788.21997 771.56836 788.38672 C 770.56836 788.55347 769.5455 788.591 768.5 788.5 C 769.5455 788.591 770.56836 788.55347 771.56836 788.38672 C 772.56836 788.21997 773.5455 787.924 774.5 787.5 z M 782.46484 787.94727 C 782.77633 787.94955 783.07745 787.97205 783.36914 788.01367 C 783.95252 788.09692 784.496 788.259 785 788.5 C 784.496 788.259 783.95252 788.09692 783.36914 788.01367 C 782.78577 787.93042 782.1625 787.926 781.5 788 C 781.83125 787.963 782.15336 787.94498 782.46484 787.94727 z M 772.23242 797.44141 C 772.65316 797.44062 773.07525 797.46 773.5 797.5 C 772.6505 797.42 771.80994 797.42066 770.97656 797.50391 C 770.14319 797.58716 769.317 797.753 768.5 798 C 769.317 797.753 770.14319 797.58716 770.97656 797.50391 C 771.39325 797.46228 771.81169 797.44219 772.23242 797.44141 z M 783.5 797.5 C 783.419 798.5135 783.42053 799.51953 783.50391 800.51953 C 783.58728 801.51953 783.7525 802.5135 784 803.5 C 783.7525 802.5135 783.58728 801.51953 783.50391 800.51953 C 783.42053 799.51953 783.419 798.5135 783.5 797.5 z M 777.5 798.5 C 777.62275 799.309 777.79737 799.94706 778.02539 800.41406 C 777.79737 799.94706 777.62275 799.309 777.5 798.5 z M 766.12305 799.01953 C 766.72066 799.32064 767.3465 799.8145 768 800.5 C 767.3465 799.8145 766.72066 799.32064 766.12305 799.01953 z M 762.87305 799.51953 C 762.38731 799.9873 761.92975 800.64775 761.5 801.5 C 761.92975 800.64775 762.38731 799.9873 762.87305 799.51953 z M 781.5 800 C 780.956 800.559 780.46403 800.94706 780.02539 801.16406 C 780.46403 800.94706 780.956 800.559 781.5 800 z M 776.2793 807.44727 C 776.5358 807.44942 776.78906 807.47205 777.03906 807.51367 C 777.53906 807.59692 778.026 807.7585 778.5 808 C 778.026 807.7585 777.53906 807.59692 777.03906 807.51367 C 776.53906 807.43042 776.026 807.4255 775.5 807.5 C 775.763 807.46275 776.0228 807.44511 776.2793 807.44727 z M 752.80273 815.48242 C 753.23134 815.50627 753.65558 815.5592 754.07227 815.64258 C 754.90564 815.80933 755.7145 816.0955 756.5 816.5 C 755.7145 816.0955 754.90564 815.80933 754.07227 815.64258 C 753.23889 815.47583 752.381 815.4285 751.5 815.5 C 751.9405 815.46425 752.37413 815.45858 752.80273 815.48242 z M 790.5 820.5 C 788.657 820.755 786.657 820.922 784.5 821 C 786.657 820.922 788.657 820.755 790.5 820.5 z " />
  <path class="teal" style="opacity:1"
    d="M 596.50195 669.4375 C 590.83497 669.43752 585.16725 669.45825 579.5 669.5 L 575.5 669.5 L 575.5 767.5 L 575.5 772.5 L 593.5 772.5 C 595.694 767.92 597.694 763.254 599.5 758.5 C 603.776 748.615 608.609 738.949 614 729.5 C 615.129 727.859 616.629 726.859 618.5 726.5 C 620.336 724.412 622.669 723.079 625.5 722.5 C 626.263 721.732 627.263 721.232 628.5 721 C 640.495 720.5 652.495 720.333 664.5 720.5 L 664.5 686.5 L 664.5 685.5 C 662.696 680.025 659.363 675.691 654.5 672.5 C 652.233 671.577 649.9 670.744 647.5 670 C 630.502 669.625 613.50291 669.43745 596.50195 669.4375 z M 604.35547 700.90625 C 604.29033 701.09353 604.172 701.292 604 701.5 C 604.172 701.292 604.29033 701.09353 604.35547 700.90625 z M 608.95703 708.90234 C 609.03986 709.03414 609.13413 709.12241 609.23828 709.16406 C 609.13413 709.12241 609.03986 709.03414 608.95703 708.90234 z M 585.00391 720.22266 C 584.87987 720.46653 584.79748 720.71289 584.75586 720.96289 C 584.71423 721.21289 584.71319 721.46653 584.75391 721.72266 C 584.71319 721.46653 584.71423 721.21289 584.75586 720.96289 C 584.79748 720.71289 584.87987 720.46653 585.00391 720.22266 z M 584.5 729.5 C 584.42175 730.18675 584.3842 730.86819 584.38672 731.54492 C 584.38923 732.22166 584.43231 732.89386 584.51562 733.56055 C 584.59894 734.22723 584.72258 734.88831 584.88672 735.54492 C 585.05086 736.20153 585.255 736.8535 585.5 737.5 C 585.255 736.8535 585.05086 736.20153 584.88672 735.54492 C 584.72258 734.88831 584.59894 734.22723 584.51562 733.56055 C 584.43231 732.89386 584.38923 732.22166 584.38672 731.54492 C 584.3842 730.86819 584.42175 730.18675 584.5 729.5 z M 589 750.5 C 589.16675 751 589.29162 751.5 589.375 752 C 589.45838 752.5 589.5 753 589.5 753.5 C 589.5 754 589.45838 754.5 589.375 755 C 589.29162 755.5 589.16675 756 589 756.5 C 589.16675 756 589.29162 755.5 589.375 755 C 589.45838 754.5 589.5 754 589.5 753.5 C 589.5 753 589.45838 752.5 589.375 752 C 589.29162 751.5 589.16675 751 589 750.5 z " />
  <path class="bottom-shadow" style="opacity:1"
    d="M 664.5,720.5 C 703.67,720.168 742.67,720.501 781.5,721.5C 729.477,721.184 677.477,721.518 625.5,722.5C 626.263,721.732 627.263,721.232 628.5,721C 640.495,720.5 652.495,720.333 664.5,720.5 Z" />
  <path class="vertical-shadow" style="opacity:1"
    d="M 574.5,463.5 C 575.492,471.316 575.826,479.316 575.5,487.5C 575.5,488.5 575.5,489.5 575.5,490.5C 575.5,550.167 575.5,609.833 575.5,669.5C 575.5,702.167 575.5,734.833 575.5,767.5C 575.5,769.167 575.5,770.833 575.5,772.5C 575.171,786.344 575.504,800.01 576.5,813.5C 576.44,814.043 576.107,814.376 575.5,814.5C 574.5,755.504 574.167,696.504 574.5,637.5C 574.5,579.5 574.5,521.5 574.5,463.5 Z" />
</svg>